<svg viewBox="0 0 80 80" fill="none" xmlns="http://www.w3.org/2000/svg">
  <rect width="80" height="80" rx="16" fill="#0c0c0e"/>
  <circle cx="40" cy="40" r="37" stroke="#1f1f2e" stroke-width="2"/>
  <g fill="#7cfc9f">
    <circle cx="24" cy="24" r="2.5" opacity="0.9"/>
    <circle cx="33" cy="22" r="1.5" opacity="0.4"/>
    <circle cx="40" cy="23" r="2"   opacity="0.7"/>
    <circle cx="48" cy="22" r="1.5" opacity="0.2"/>
    <circle cx="56" cy="24" r="2.5" opacity="0.6"/>
    <circle cx="22" cy="33" r="1.5" opacity="0.3"/>
    <circle cx="30" cy="31" r="2"   opacity="0.8"/>
    <circle cx="40" cy="32" r="1.5" opacity="0.5"/>
    <circle cx="50" cy="31" r="2.5" opacity="0.9"/>
    <circle cx="58" cy="33" r="1.5" opacity="0.4"/>
    <circle cx="24" cy="40" r="2"   opacity="0.6"/>
    <circle cx="32" cy="40" r="2.5" opacity="0.3"/>
    <circle cx="40" cy="40" r="3"   opacity="1"/>
    <circle cx="48" cy="40" r="2.5" opacity="0.5"/>
    <circle cx="56" cy="40" r="2"   opacity="0.8"/>
    <circle cx="22" cy="47" r="1.5" opacity="0.7"/>
    <circle cx="30" cy="49" r="2.5" opacity="0.2"/>
    <circle cx="40" cy="48" r="2"   opacity="0.6"/>
    <circle cx="50" cy="49" r="1.5" opacity="0.9"/>
    <circle cx="58" cy="47" r="2"   opacity="0.3"/>
    <circle cx="24" cy="56" r="2.5" opacity="0.4"/>
    <circle cx="33" cy="58" r="1.5" opacity="0.8"/>
    <circle cx="40" cy="57" r="2"   opacity="0.3"/>
    <circle cx="48" cy="58" r="2.5" opacity="0.7"/>
    <circle cx="56" cy="56" r="1.5" opacity="0.5"/>
  </g>
</svg>
