<svg viewBox="0 0 80 80" fill="none" xmlns="http://www.w3.org/2000/svg">
  <rect width="80" height="80" rx="10" fill="#0c0c0e"/>
  <rect x="1" y="1" width="78" height="78" rx="8" stroke="#1f1f2e" stroke-width="2"/>
  <!-- Entropy field — green -->
  <g fill="#7cfc9f">
    <circle cx="11" cy="10" r="2.0" opacity="0.55"/>
    <circle cx="28" cy="12" r="1.5" opacity="0.30"/>
    <circle cx="42" cy="9"  r="1.8" opacity="0.50"/>
    <circle cx="56" cy="12" r="1.5" opacity="0.25"/>
    <circle cx="69" cy="11" r="2.0" opacity="0.45"/>
    <circle cx="18" cy="17" r="1.3" opacity="0.35"/>
    <circle cx="64" cy="17" r="1.5" opacity="0.28"/>
    <circle cx="10" cy="28" r="1.8" opacity="0.42"/>
    <circle cx="10" cy="42" r="1.5" opacity="0.32"/>
    <circle cx="10" cy="56" r="2.0" opacity="0.48"/>
    <circle cx="70" cy="30" r="1.5" opacity="0.35"/>
    <circle cx="69" cy="44" r="2.0" opacity="0.40"/>
    <circle cx="70" cy="58" r="1.5" opacity="0.30"/>
    <circle cx="26" cy="26" r="1.5" opacity="0.28"/>
    <circle cx="26" cy="52" r="1.8" opacity="0.38"/>
    <circle cx="40" cy="20" r="1.5" opacity="0.35"/>
    <circle cx="40" cy="38" r="1.3" opacity="0.20"/>
    <circle cx="40" cy="56" r="2.0" opacity="0.45"/>
    <circle cx="54" cy="25" r="1.5" opacity="0.28"/>
    <circle cx="54" cy="54" r="1.8" opacity="0.38"/>
    <circle cx="16" cy="63" r="1.8" opacity="0.40"/>
    <circle cx="32" cy="68" r="1.5" opacity="0.28"/>
    <circle cx="48" cy="66" r="2.0" opacity="0.42"/>
    <circle cx="63" cy="67" r="1.5" opacity="0.32"/>
    <circle cx="20" cy="55" r="1.3" opacity="0.22"/>
    <circle cx="62" cy="38" r="1.5" opacity="0.28"/>
    <circle cx="38" cy="70" r="1.3" opacity="0.25"/>
    <circle cx="14" cy="71" r="1.5" opacity="0.30"/>
    <circle cx="66" cy="68" r="1.8" opacity="0.28"/>
    <circle cx="22" cy="22" r="1.3" opacity="0.30"/>
    <circle cx="62" cy="23" r="1.3" opacity="0.25"/>
  </g>
  <!-- Entropy field — gray -->
  <g fill="#a0a8c0">
    <circle cx="19" cy="9"  r="1.5" opacity="0.35"/>
    <circle cx="35" cy="14" r="1.8" opacity="0.28"/>
    <circle cx="51" cy="10" r="1.3" opacity="0.32"/>
    <circle cx="66" cy="13" r="1.5" opacity="0.25"/>
    <circle cx="13" cy="20" r="1.3" opacity="0.30"/>
    <circle cx="59" cy="21" r="1.8" opacity="0.28"/>
    <circle cx="15" cy="35" r="1.5" opacity="0.32"/>
    <circle cx="15" cy="49" r="1.3" opacity="0.25"/>
    <circle cx="65" cy="36" r="1.5" opacity="0.30"/>
    <circle cx="66" cy="52" r="1.3" opacity="0.28"/>
    <circle cx="31" cy="22" r="1.3" opacity="0.25"/>
    <circle cx="19" cy="31" r="1.5" opacity="0.30"/>
    <circle cx="43" cy="27" r="1.3" opacity="0.22"/>
    <circle cx="31" cy="57" r="1.5" opacity="0.30"/>
    <circle cx="43" cy="51" r="1.3" opacity="0.25"/>
    <circle cx="57" cy="43" r="1.5" opacity="0.28"/>
    <circle cx="22" cy="68" r="1.3" opacity="0.30"/>
    <circle cx="44" cy="72" r="1.5" opacity="0.28"/>
    <circle cx="58" cy="69" r="1.3" opacity="0.25"/>
    <circle cx="71" cy="22" r="1.3" opacity="0.28"/>
    <circle cx="72" cy="44" r="1.5" opacity="0.25"/>
    <circle cx="71" cy="64" r="1.3" opacity="0.28"/>
  </g>
  <!-- Wicks -->
  <g stroke-linecap="round">
    <line x1="25" y1="25" x2="25" y2="42" stroke="#e07040" stroke-width="0.7" opacity="0.55"/>
    <line x1="34" y1="33" x2="34" y2="51" stroke="#e07040" stroke-width="0.7" opacity="0.50"/>
    <line x1="46" y1="40" x2="46" y2="51" stroke="#7cfc9f" stroke-width="0.7" opacity="0.62"/>
    <line x1="55" y1="18" x2="55" y2="50" stroke="#7cfc9f" stroke-width="0.8" opacity="0.70"/>
  </g>
  <!-- Candle 1: bearish (orange) -->
  <g fill="#e07040">
    <circle cx="25" cy="28" r="2.5" opacity="0.58"/>
    <circle cx="25" cy="33" r="2.3" opacity="0.52"/>
    <circle cx="25" cy="39" r="2.5" opacity="0.55"/>
  </g>
  <!-- Candle 2: bearish (orange) -->
  <g fill="#e07040">
    <circle cx="34" cy="36" r="2.5" opacity="0.54"/>
    <circle cx="34" cy="42" r="2.3" opacity="0.48"/>
    <circle cx="34" cy="48" r="2.5" opacity="0.52"/>
  </g>
  <!-- Candle 3: small bullish (green) -->
  <g fill="#7cfc9f">
    <circle cx="46" cy="43" r="2.5" opacity="0.78"/>
    <circle cx="46" cy="48" r="2.5" opacity="0.73"/>
  </g>
  <!-- Candle 4: big bullish (green), ascending brightness, bright top dot -->
  <g fill="#7cfc9f">
    <circle cx="55" cy="47" r="2.5" opacity="0.78"/>
    <circle cx="55" cy="40" r="2.8" opacity="0.86"/>
    <circle cx="55" cy="32" r="3.0" opacity="0.93"/>
    <circle cx="55" cy="24" r="3.3" opacity="0.97"/>
    <circle cx="55" cy="18" r="3.0" opacity="1.00"/>
  </g>
</svg>
