<svg xmlns="http://www.w3.org/2000/svg" width="1200" height="630" viewBox="0 0 1200 630">
  <!-- Background -->
  <rect width="1200" height="630" fill="#0c0c0e"/>

  <!-- Card surface -->
  <rect x="60" y="60" width="1080" height="510" rx="16" fill="#13131a" stroke="#1f1f2e" stroke-width="1.5"/>

  <!-- Accent bar -->
  <rect x="60" y="60" width="6" height="510" rx="3" fill="#7cfc9f"/>

  <!-- Entropy dot field — top right corner -->
  <g fill="#7cfc9f">
    <circle cx="980" cy="110" r="3"   opacity="0.30"/>
    <circle cx="1020" cy="95"  r="2.5" opacity="0.25"/>
    <circle cx="1060" cy="115" r="3.5" opacity="0.28"/>
    <circle cx="1100" cy="100" r="2.5" opacity="0.22"/>
    <circle cx="1000" cy="140" r="2"   opacity="0.20"/>
    <circle cx="1080" cy="135" r="3"   opacity="0.25"/>
    <circle cx="1110" cy="155" r="2"   opacity="0.18"/>
    <circle cx="1050" cy="165" r="2.5" opacity="0.20"/>
  </g>
  <g fill="#a0a8c0">
    <circle cx="960"  cy="105" r="2"   opacity="0.18"/>
    <circle cx="1040" cy="120" r="2"   opacity="0.15"/>
    <circle cx="1090" cy="140" r="2.5" opacity="0.15"/>
    <circle cx="1020" cy="155" r="2"   opacity="0.12"/>
  </g>

  <!-- Candlestick graphic — bottom right -->
  <!-- Wicks -->
  <line x1="940"  y1="330" x2="940"  y2="460" stroke="#e07040" stroke-width="2.5" stroke-linecap="round" opacity="0.6"/>
  <line x1="1000" y1="350" x2="1000" y2="480" stroke="#e07040" stroke-width="2.5" stroke-linecap="round" opacity="0.55"/>
  <line x1="1060" y1="360" x2="1060" y2="470" stroke="#7cfc9f" stroke-width="2.5" stroke-linecap="round" opacity="0.70"/>
  <line x1="1115" y1="280" x2="1115" y2="480" stroke="#7cfc9f" stroke-width="3"   stroke-linecap="round" opacity="0.80"/>

  <!-- Candle bodies -->
  <rect x="930"  y="345" width="22" height="90" rx="4" fill="#e07040" opacity="0.65"/>
  <rect x="990"  y="365" width="22" height="95" rx="4" fill="#e07040" opacity="0.60"/>
  <rect x="1050" y="375" width="22" height="75" rx="4" fill="#7cfc9f" opacity="0.85"/>
  <rect x="1104" y="295" width="22" height="155" rx="4" fill="#7cfc9f" opacity="0.95"/>

  <!-- Logo mark -->
  <svg x="120" y="155" width="72" height="72" viewBox="0 0 80 80" fill="none" xmlns="http://www.w3.org/2000/svg">
    <rect x="1" y="1" width="78" height="78" rx="8" stroke="#1f1f2e" stroke-width="2"/>
    <g fill="#7cfc9f">
      <circle cx="55" cy="47" r="2.5" opacity="0.78"/>
      <circle cx="55" cy="40" r="2.8" opacity="0.86"/>
      <circle cx="55" cy="32" r="3.0" opacity="0.93"/>
      <circle cx="55" cy="24" r="3.3" opacity="0.97"/>
      <circle cx="55" cy="18" r="3.0" opacity="1.00"/>
      <circle cx="46" cy="43" r="2.5" opacity="0.78"/>
      <circle cx="46" cy="48" r="2.5" opacity="0.73"/>
    </g>
    <g fill="#e07040">
      <circle cx="25" cy="28" r="2.5" opacity="0.58"/>
      <circle cx="25" cy="33" r="2.3" opacity="0.52"/>
      <circle cx="25" cy="39" r="2.5" opacity="0.55"/>
      <circle cx="34" cy="36" r="2.5" opacity="0.54"/>
      <circle cx="34" cy="42" r="2.3" opacity="0.48"/>
      <circle cx="34" cy="48" r="2.5" opacity="0.52"/>
    </g>
    <g stroke-linecap="round">
      <line x1="25" y1="25" x2="25" y2="42" stroke="#e07040" stroke-width="0.7" opacity="0.55"/>
      <line x1="34" y1="33" x2="34" y2="51" stroke="#e07040" stroke-width="0.7" opacity="0.50"/>
      <line x1="46" y1="40" x2="46" y2="51" stroke="#7cfc9f" stroke-width="0.7" opacity="0.62"/>
      <line x1="55" y1="18" x2="55" y2="50" stroke="#7cfc9f" stroke-width="0.8" opacity="0.70"/>
    </g>
  </svg>

  <!-- Company name — constrained to left two-thirds -->
  <text x="216" y="208" font-family="Arial Black, 'Arial Bold', Impact, sans-serif"
        font-weight="900" font-size="46" letter-spacing="3" fill="#f0f0f8">STRONG ENTROPY</text>

  <!-- LLC -->
  <text x="220" y="238" font-family="'Courier New', 'Lucida Console', monospace"
        font-size="15" letter-spacing="8" fill="#555570">LLC</text>

  <!-- Divider -->
  <line x1="120" y1="278" x2="880" y2="278" stroke="#1f1f2e" stroke-width="1"/>

  <!-- Services -->
  <text x="120" y="348" font-family="'Courier New', 'Lucida Console', monospace"
        font-size="24" letter-spacing="1" fill="#7cfc9f" opacity="0.9">Quantitative FinTech</text>

  <text x="120" y="395" font-family="'Courier New', 'Lucida Console', monospace"
        font-size="24" letter-spacing="1" fill="#7cfc9f" opacity="0.9">Cybersecurity</text>

  <text x="120" y="442" font-family="'Courier New', 'Lucida Console', monospace"
        font-size="24" letter-spacing="1" fill="#7cfc9f" opacity="0.9">Automation and Enablement</text>

  <!-- URL -->
  <text x="120" y="530" font-family="'Courier New', 'Lucida Console', monospace"
        font-size="16" letter-spacing="1" fill="#555570">strongentropy.com</text>
</svg>
